HIERARCHY
ROOT Hips
{
  OFFSET -331.093 83.8371 -317.828
  CHANNELS 6 Xposition Yposition Zposition Zrotation Xrotation Yrotation
  JOINT LeftUpLeg
  {
    OFFSET 8.64259 1.95398 -2.38835
    CHANNELS 3 Zrotation Xrotation Yrotation
    JOINT LeftLeg
    {
      OFFSET 43.7702 0 0
      CHANNELS 3 Zrotation Xrotation Yrotation
      JOINT LeftFoot
      {
        OFFSET 40.6238 0 0
        CHANNELS 3 Zrotation Xrotation Yrotation
        JOINT LeftToeBase
        {
          OFFSET 12.7242 0 0
          CHANNELS 3 Zrotation Xrotation Yrotation
          End Site
          {
            OFFSET 0 0 0
          }
        }
      }
    }
  }
  JOINT RightUpLeg
  {
    OFFSET -8.2249 1.95398 -2.59336
    CHANNELS 3 Zrotation Xrotation Yrotation
    JOINT RightLeg
    {
      OFFSET 43.5653 0 0
      CHANNELS 3 Zrotation Xrotation Yrotation
      JOINT RightFoot
      {
        OFFSET 40.6238 0 0
        CHANNELS 3 Zrotation Xrotation Yrotation
        JOINT RightToeBase
        {
          OFFSET 12.7242 0 0
          CHANNELS 3 Zrotation Xrotation Yrotation
          End Site
          {
            OFFSET 0 0 0
          }
        }
      }
    }
  }
  JOINT Spine
  {
    OFFSET 0.165834 0.87714 6.61349
    CHANNELS 3 Zrotation Xrotation Yrotation
    JOINT Spine1
    {
      OFFSET 7.38963 1.71661e-005 0
      CHANNELS 3 Zrotation Xrotation Yrotation
      JOINT Spine2
      {
        OFFSET 11.9445 1.14441e-005 0
        CHANNELS 3 Zrotation Xrotation Yrotation
        JOINT Spine3
        {
          OFFSET 14.7254 4.19617e-005 0
          CHANNELS 3 Zrotation Xrotation Yrotation
          JOINT Spine4
          {
            OFFSET 10.9679 0 0
            CHANNELS 3 Zrotation Xrotation Yrotation
            JOINT RightShoulder
            {
              OFFSET 2.46616 -1.6653 3.69651
              CHANNELS 3 Zrotation Xrotation Yrotation
              JOINT RightArm
              {
                OFFSET 13.0012 0 0
                CHANNELS 3 Zrotation Xrotation Yrotation
                JOINT RightForeArm
                {
                  OFFSET 28.7848 1.62311e-005 0
                  CHANNELS 3 Zrotation Xrotation Yrotation
                  JOINT RightHand
                  {
                    OFFSET 26.5688 1.62095e-005 0
                    CHANNELS 3 Zrotation Xrotation Yrotation
                    End Site
                    {
                      OFFSET 0 0 0
                    }
                  }
                }
              }
            }
            JOINT LeftShoulder
            {
              OFFSET 2.38034 -1.29275 -3.7523
              CHANNELS 3 Zrotation Xrotation Yrotation
              JOINT LeftArm
              {
                OFFSET 16.3182 6.07031e-005 0
                CHANNELS 3 Zrotation Xrotation Yrotation
                JOINT LeftForeArm
                {
                  OFFSET 27.0901 0 0
                  CHANNELS 3 Zrotation Xrotation Yrotation
                  JOINT LeftHand
                  {
                    OFFSET 24.5451 1.51738e-005 0
                    CHANNELS 3 Zrotation Xrotation Yrotation
                    End Site
                    {
                      OFFSET 0 0 0
                    }
                  }
                }
              }
            }
            JOINT Neck
            {
              OFFSET 5.0226 -0.0266342 0
              CHANNELS 3 Zrotation Xrotation Yrotation
              JOINT Head
              {
                OFFSET 6.69364 2.86102e-005 0
                CHANNELS 3 Zrotation Xrotation Yrotation
                End Site
                {
                  OFFSET 0 0 0
                }
              }
            }
          }
        }
      }
    }
  }
}
MOTION
Frames:	15
Frame Time:	0.0416667
54.2925 90.0329 -358.365 4.08592 -13.6639 17.9517 153.679 67.3596 117.41 -41.8301 17.4068 7.02436 39.0419 -23.5267 -13.6645 110.202 15.8677 -47.7661 8.41136 60.9765 -112.49 -93.6392 55.965 33.8575 40.233 6.7383 13.697 29.8318 12.875 84.0399 -0.54897 0.73541 -88.0297 25.3842 0.0972393 4.0711 13.707 0.276168 4.06289 -8.77981 -1.12983 3.91264 11.2328 -1.12983 3.91264 145.581 -75.001 -31.5338 -9.7859 15.7084 51.7535 -161.732 33.0202 -134.887 -47.8577 -22.1586 41.4782 -89.1066 -15.6174 69.5594 -23.7343 46.8695 -8.57419 8.45328 -20.7417 -106.873 31.4064 2.06224 2.712 13.7238 -21.7052 -56.0832 -6.44388 -7.57332 36.4594 
54.3156 91.3375 -355.122 10.8214 -34.6627 8.87283 178.148 36.5654 85.5262 -23.4532 21.5801 3.31773 30.9273 -20.1454 -14.7994 113.861 23.7386 -43.0768 14.1504 81.0853 -116.043 -71.6465 23.4463 10.8756 53.6176 4.81429 5.65531 61.1904 16.2041 35.9561 -0.387611 2.96746 -88.5338 20.9093 0.0629674 3.06787 9.2347 0.197863 3.06214 -13.2727 -0.861533 2.9452 6.73988 -0.861546 2.9452 116.242 -61.2137 -62.5578 1.08188 4.48978 47.6304 -164.767 24.7776 -132.734 -54.052 -23.9664 38.7199 -91.546 -30.047 70.9168 -26.37 44.746 1.59414 12.231 -24.1445 -115.193 29.9275 2.24105 3.66681 16.8791 -12.9681 -32.1707 -9.14289 -4.84365 24.7327 
54.3683 91.002 -350.121 10.3599 -58.5426 1.00529 177.55 -0.340989 89.9642 -5.83056 24.4014 1.22224 26.286 -16.8357 -14.1021 113.655 34.2154 -35.0609 176.492 73.3892 85.9774 -68.6117 -3.46162 0.319456 69.4817 -1.31716 -1.1707 51.9869 -4.33247 -9.22042 -0.648356 5.35979 -88.8263 16.1547 -0.688451 2.44897 4.48152 -0.580036 2.47687 -18.04 -1.39249 2.12909 1.97266 -1.39249 2.12909 100.845 -47.8609 -83.8626 14.9943 -0.927689 47.4296 -167.437 14.9952 -132.906 -63.7408 -26.3685 33.9801 -92.5938 -39.2073 72.253 -32.8262 39.0961 11.4962 15.231 -23.9146 -114.764 30.7325 2.40425 4.0121 8.36623 -2.35517 -10.3482 -0.88633 -0.0864745 9.92224 
53.8413 90.4415 -344.478 8.26015 -76.3648 5.03622 -176.044 -9.08265 88.9927 -27.4372 23.5778 0.986557 41.3723 -10.8862 -7.27957 108.394 34.1155 -31.8781 171.706 50.5961 95.9895 -67.1292 -5.21478 0.627572 65.9465 -1.12794 -0.948561 49.5952 -4.23352 -12.5549 -0.947657 7.36755 -89.8048 12.1564 -1.79067 0.575476 0.486627 -1.76361 0.653733 -22.0595 -1.88085 0.0104977 -2.04688 -1.88084 0.0105049 93.9375 -42.0818 -95.7861 23.2395 -1.39369 43.0587 -162.443 3.52407 -128.672 -76.0187 -21.8419 18.7592 -92.0229 -42.5641 74.1994 -36.092 31.304 14.8144 13.9809 -18.6467 -108.267 31.0409 2.5989 4.574 3.25004 1.82727 -0.222849 4.57669 2.05934 4.20959 
54.056 90.301 -337.167 35.9895 -81.6495 35.4146 -175.509 0.0416188 93.2965 -53.2719 17.0782 3.3962 50.9085 -6.33935 -1.60313 104.543 31.6825 -31.4493 169.499 35.0437 98.0482 -63.8664 -0.287215 2.19309 73.1396 -4.9086 -2.7336 44.1081 -0.690076 -1.62562 -1.36795 8.15481 -90.1952 10.565 -2.81427 -0.135271 -1.10288 -2.81751 -0.0111944 -23.6603 -2.64343 -0.975419 -3.64763 -2.64342 -0.975415 90.8342 -42.7978 -100.843 24.1193 -0.81979 36.2017 -156.254 -2.52646 -125.071 -79.0869 -15.8712 9.33644 -91.6533 -43.9639 75.181 -37.333 25.1849 16.3073 12.2501 -13.04 -97.9215 30.1157 2.45459 4.34971 -0.0195136 2.33463 1.78473 8.39602 2.33508 3.22922 
53.9669 89.1402 -330.187 25.0386 -80.5354 25.8368 -175.217 16.9101 92.8513 -71.9451 11.5354 3.38944 55.212 -2.95447 4.18649 94.7383 30.7092 -25.7291 172.434 30.5157 100.599 -62.6129 3.13874 1.12665 78.7462 -7.71925 -3.81865 46.6379 -1.29703 -3.53188 -0.913111 7.99694 -90.4122 10.8747 -2.00851 -0.630753 -0.79479 -2.03434 -0.541728 -23.3384 -1.72608 -1.20536 -3.32571 -1.72608 -1.20536 91.5059 -42.8667 -99.7042 25.7455 -1.29513 27.7095 -152.538 -5.14608 -122.499 -72.5559 -12.6663 7.25746 -93.0006 -46.0844 73.6734 -36.604 21.143 17.6135 13.6885 -8.15533 -86.9867 33.5825 3.41718 6.45678 0.377205 1.02651 3.04286 8.74773 0.700776 1.34303 
54.2728 88.1067 -323.349 -9.78119 -76.4473 -7.2712 -171.761 36.9247 94.023 -83.9792 6.62759 2.49483 56.9388 -2.82524 3.23659 63.0455 24.2617 -4.02487 178.061 29.3372 103.11 -59.9342 3.90925 -1.4658 80.6982 -9.79139 -4.55146 52.1263 -1.52481 -3.27066 0.0639408 7.62663 -90.4964 11.614 -0.105532 -0.982457 -0.0575571 -0.148674 -0.976884 -22.5878 0.194561 -0.968779 -2.57513 0.194568 -0.968782 90.7593 -41.9586 -101.191 27.1095 0.159682 18.3255 -149.214 -5.16504 -120.205 -62.5995 -10.0867 6.49424 -94.1651 -48.3709 72.5693 -34.6854 16.3968 20.2125 12.4037 -3.39995 -79.5103 38.2471 3.35928 4.89583 3.85166 -0.343025 3.67932 6.26985 -0.939394 0.539274 
54.2712 87.7953 -314.762 -21.3263 -75.6589 -23.3384 -166.589 47.6915 87.5181 -85.8775 7.4421 1.0314 57.2861 -2.6939 3.11467 37.0763 13.8016 19.5782 179.514 21.4027 98.1884 -56.5759 2.09924 -4.13092 83.2152 -11.2072 -4.92872 54.7389 -1.9242 -4.03894 0.528903 7.67495 -89.8509 11.5321 1.12221 0.187104 -0.138181 1.12935 0.137517 -22.6778 1.01408 0.515755 -2.66513 1.01408 0.515752 91.4013 -38.605 -100.984 32.4541 -0.889326 10.2478 -142.429 -5.92023 -114.969 -56.3815 -5.95813 0.525887 -93.9182 -48.6665 73.0215 -35.8427 14.1351 28.6507 6.68199 -5.7617 -82.683 36.9229 3.49676 5.65823 5.71081 -1.26028 4.68181 4.78957 -2.17006 -1.00822 
54.3435 88.931 -304.695 -28.0621 -76.1296 -32.6548 -164.673 52.8024 84.4438 -79.1084 11.8431 -0.975088 57.899 -2.08532 3.70474 36.3151 14.8698 23.8142 178.848 10.7513 93.7494 -49.7644 -4.32159 -6.46418 76.3792 -7.88899 -4.04365 62.7767 -1.87253 -2.81915 0.992217 7.68051 -89.438 11.5048 2.23683 0.891074 -0.164467 2.27387 0.791733 -22.7087 1.86562 1.5223 -2.69605 1.86561 1.52228 92.3452 -36.3032 -99.9139 36.0912 -2.83274 4.9803 -123.646 -1.29151 -106.094 -50.1805 1.23239 -14.74 -91.4706 -46.4645 76.1322 -40.5013 14.7962 37.9155 9.3454 -7.53173 -88.3737 35.7006 3.53922 6.12342 4.0792 -3.11129 4.23001 5.35061 -3.9112 -2.0167 
54.5232 90.9594 -293.533 -35.3598 -75.0228 -39.5939 -166.341 54.7375 87.3228 -65.279 15.2379 -3.46092 57.6281 -2.59259 2.96231 39.0467 16.991 21.6604 178.438 1.14233 91.2863 -41.0526 -12.117 -8.37403 66.4074 -3.23184 -1.7722 53.2872 0.923705 3.89388 1.45468 7.61962 -89.4202 11.6277 3.16531 0.82494 -0.0395066 3.19854 0.684677 -22.5979 2.77097 1.7387 -2.58523 2.77097 1.7387 93.3723 -33.4334 -98.759 37.6058 -8.4034 -0.114257 -91.9945 2.54172 -100.537 -45.437 8.1074 -31.8189 -89.6152 -44.973 78.6521 -45.2343 14.9859 44.3135 8.85186 -9.09121 -91.0418 34.6945 3.14971 5.29612 4.40128 -4.49658 5.3518 5.00993 -5.54874 -3.34323 
55.7299 93.0594 -281.944 -28.2216 -75.2211 -34.4787 -171.142 53.5043 86.7867 -45.5457 15.6321 -4.92004 53.5657 -5.45747 0.59713 34.7192 10.697 18.2712 173.669 -3.25667 84.261 -33.7616 -24.1814 -9.02771 49.1095 6.51921 4.99483 38.3366 -0.671649 -2.97167 1.51393 7.4526 -89.1502 11.9501 3.41075 1.32704 0.283084 3.46585 1.1755 -22.2736 2.85424 2.29126 -2.26091 2.85423 2.29126 93.768 -32.4204 -98.2648 38.0447 -13.7624 -1.80402 -57.1756 9.33221 -101.481 -34.9034 8.72557 -38.0471 -89.843 -43.3611 77.9045 -48.585 12.7695 48.4869 6.62933 -9.6926 -91.651 36.292 2.54796 3.13053 4.24081 -5.79 4.84422 4.16576 -6.75916 -4.48057 
56.1098 94.6192 -270.3 -23.0512 -76.3041 -28.558 -176.2 48.2286 88.98 -23.8008 17.233 -4.01762 46.8642 -9.59394 -2.91673 32.4676 8.51869 18.7397 171.854 -8.67368 83.679 -30.5213 -24.0536 -9.32801 40.4738 10.6708 9.61262 25.3849 -0.867418 -10.078 1.61831 7.37433 -89.2319 12.1105 3.58013 1.13779 0.444096 3.62672 0.978911 -22.118 3.0726 2.16189 -2.10537 3.07259 2.16187 94.2466 -31.475 -97.571 38.3306 -17.9762 -1.52284 -32.0043 11.2902 -106.254 -28.9754 5.12245 -26.693 -89.9118 -42.0097 77.4571 -51.3012 11.3126 50.2995 6.86632 -9.95383 -92.1622 36.1185 2.50678 3.05973 3.78921 -6.92708 4.6054 3.94886 -7.8501 -5.3452 
56.1533 94.7497 -258.776 -19.0836 -76.5833 -22.2948 -176.705 45.5791 90.2207 -15.146 12.0859 -3.54972 46.4156 -9.63822 -4.13809 38.8166 14.797 17.7244 173.783 -8.8622 86.0842 -36.6776 -10.7014 -8.22646 43.5618 7.59149 6.62177 24.4656 -0.479398 -6.91066 1.68735 7.20439 -89.4503 12.4591 3.61405 0.682792 0.793119 3.6406 0.522863 -21.7746 3.24162 1.73842 -1.76197 3.24161 1.73841 94.1947 -31.8155 -97.5887 38.4841 -19.8967 0.273206 -20.0842 10.4962 -105.203 -26.0958 1.62467 -12.7532 -89.0938 -41.7653 78.7312 -51.3436 10.1759 49.6665 4.31743 -9.99948 -93.5536 34.0664 2.18043 2.52174 3.59017 -7.70953 2.09192 3.78907 -8.08413 -3.46331 
56.1178 93.9459 -247.204 -14.5115 -79.3999 -16.2561 -173.79 42.1526 88.6805 -19.5068 9.18043 -4.52876 48.0516 -9.49628 -5.9658 40.4688 16.5724 17.6555 175.282 -8.09451 88.5991 -48.6813 0.290448 -7.46217 47.0326 5.45322 4.47354 21.0409 -0.211858 -7.11102 1.52636 7.28928 -89.6471 12.2947 3.20077 0.34295 0.627624 3.21276 0.201592 -21.9351 2.9496 1.28988 -1.92244 2.9496 1.28986 93.4613 -33.3211 -98.6183 38.1385 -19.1121 3.3484 -20.1407 8.31991 -98.5332 -25.2884 -0.922787 -1.02725 -89.4842 -43.5424 78.5249 -48.2085 8.43151 46.7611 3.50961 -8.89926 -92.6138 32.6826 1.88517 1.88105 2.04695 -7.54028 1.76053 3.85313 -7.8665 -3.69698 
55.8968 92.8791 -236.213 -14.1945 -82.7993 -15.4958 -170.36 40.1135 87.3375 -34.519 15.7066 -7.51281 59.9308 0.188112 4.28568 28.902 1.17776 4.5391 176.149 -3.2604 86.9843 -64.5445 6.42408 -5.9261 50.1646 3.12435 2.43691 20.5237 -0.22359 -8.24883 1.34788 7.46004 -89.7023 11.9521 2.82033 0.288053 0.284187 2.83028 0.163539 -22.2724 2.60331 1.12294 -2.25977 2.60329 1.12291 92.5003 -35.3311 -99.8892 38.7177 -18.2034 7.46293 -18.0871 0.183262 -91.3886 -24.4039 -1.0663 -0.136597 -90.3681 -45.5088 77.6005 -43.8036 7.33007 42.2253 1.87026 -7.63558 -90.4129 32.4304 1.96547 2.19022 -0.686363 -7.06165 1.62886 4.76554 -7.43539 -4.47495 
